<?xml version="1.0" encoding="UTF-8"?>
<svg width="256px" height="256px" viewBox="0 0 256 256" version="1.1" xmlns="http://www.w3.org/2000/svg" xmlns:xlink="http://www.w3.org/1999/xlink">
    <title>Logo</title>
    <g id="Logo" stroke="none" stroke-width="1" fill="none" fill-rule="evenodd">
        <rect fill="#FFFFFF" x="0" y="0" width="256" height="256"></rect>
        <path d="M184.70792,37 C170.967789,39.8643122 157.323647,46.9901162 143.775495,58.3774123 C130.227343,69.7647083 119.836086,80.1746971 112.601725,89.6073788 C110.82657,97.5447313 110.362315,103.83482 111.208959,108.477645 C112.055604,113.12047 112.726122,117.53632 113.220513,121.725195 C110.317406,118.709359 108.409975,116.386527 107.49822,114.756698 C106.586466,113.126869 105.079333,110.172625 102.976821,105.893967 C101.492279,113.248205 100.903752,118.040298 101.211239,120.270246 C101.518726,122.500194 102.554993,127.549594 104.320041,135.418444 C114.939566,118.812261 125.864205,103.489762 137.093957,89.4509457 C148.32371,75.4121298 160.412917,61.6370325 173.361578,48.1256539 C141.636073,86.8061097 118.491149,118.468719 103.926804,143.113483 C89.3624592,167.758247 78.7201912,187.989579 72,203.80748 C72.6558356,206.020686 72.883612,208.731704 72.683329,211.940535 C72.483046,215.149365 72.8310974,217.835854 73.7274832,220 C84.6968003,194.724805 91.6008046,179.033235 94.439496,172.925289 C97.2781874,166.817342 103.46546,155.353615 113.001313,138.534107 C115.508163,138.798318 119.203917,138.220259 124.088575,136.79993 C131.415562,134.669436 133.852103,133.073605 136.48414,131.106012 C138.238832,129.794284 140.957195,126.942404 144.639231,122.550372 L123.776608,120.300909 L124.962227,118.294688 L154.518529,108.672904 C171.401406,83.5390856 180.835352,65.5758777 182.820367,54.7832806 C184.805381,43.9906834 185.434566,38.0629232 184.70792,37 Z" id="Path" fill="#0A1F44"></path>
    </g>
</svg>